<?xml version="1.0" encoding="utf-8"?>
<!-- Generator: Adobe Illustrator 16.0.3, SVG Export Plug-In . SVG Version: 6.00 Build 0)  -->
<!DOCTYPE svg PUBLIC "-//W3C//DTD SVG 1.1//EN" "http://www.w3.org/Graphics/SVG/1.1/DTD/svg11.dtd">
<svg version="1.1" id="Layer_1" xmlns="http://www.w3.org/2000/svg" xmlns:xlink="http://www.w3.org/1999/xlink" x="0px" y="0px"
	 width="1200px" height="300px" viewBox="0 0 1200 300" enable-background="new 0 0 1200 300" xml:space="preserve">
<path fill="#002D73" d="M329.275,75.311v126.545c0,1.186,0.921,2.193,2.096,2.297c6.668,0.553,14.076,0.553,21.859,0
	c6.352-0.492,14.102-1.4,23.672-2.785c-0.349,1.934-0.521,4.023-0.521,6.279c0,1.92,0.197,4.254,0.569,6.781h-75.314V75.336
	c1.435,0.126,3.286,0.353,5.575,0.665c3.342,0.573,6.772,0.587,8.816,0.041l6.775-0.03C325.38,75.66,327.513,75.415,329.275,75.311z
	 M419.554,82.231c-4.018,0.561-6.694,0.572-8.624,0.03h-6.775c-2.394-0.327-4.222-0.536-5.598-0.669v132.835h26.219V81.562
	C423.267,81.678,421.55,81.896,419.554,82.231z M445.523,81.465c0.253,1.885,0.38,3.77,0.38,5.613c0,2.424-0.12,4.564-0.343,6.393
	h4.379c12.407-1.569,22.825-2.371,30.813-2.371c1.279,0,2.308,1.03,2.308,2.296v121.032h25.435V93.396
	c0-1.267,1.033-2.296,2.304-2.296c5.813,0,14.131,0.535,24.739,1.583c2.684,0.387,5.531,0.632,8.5,0.744
	c-0.301-1.836-0.301-3.94,0.011-6.293c-0.327-1.877-0.312-3.783,0.06-5.668H445.523z M564.975,81.465v132.963h71.831
	c-0.35-2.395-0.536-4.584-0.536-6.393c0-2.07,0.16-4.008,0.449-5.783c-4.889,0.744-10.335,1.338-16.178,1.738
	c-6.795,0.547-16.154,0.812-27.834,0.812c-1.269,0-2.297-1.034-2.297-2.31v-51.388c0-1.264,1.028-2.297,2.297-2.297h19.222
	c6.405,0.374,11.552,0.751,16.708,1.122l3.805,0.264c-0.111-0.508-0.236-1.082-0.375-1.69l-0.07-9.248
	c0-0.26,0.037-0.513,0.127-0.736c0.049-0.178,0.104-0.364,0.16-0.535c-6.77,0.84-12.958,1.193-20.354,1.193h-19.222
	c-1.269,0-2.297-1.034-2.297-2.301v-43.48c0-1.267,1.028-2.296,2.297-2.296c14.178,0,29.067,0.922,44.281,2.75
	c-0.479-2.097-0.719-4.111-0.719-5.984c0-2.229,0.239-4.378,0.727-6.401H564.975z M744.947,173.576
	c-0.551-16.432-13.176-31.013-37.6-43.23c-18.101-9.325-26.885-18.387-26.885-27.672c0-14.975,8.77-23.197,25.369-23.795
	c11.295,0,19.984,6.051,25.869,18.012c0.615-2.104,1.475-4.794,2.59-8.177c1.36-3.583,2.512-6.589,3.477-9.072
	c-8.68-5.17-19.146-8.055-31.122-8.56c-30.132,1.594-45.331,15.474-46.374,42.424c0,18.157,11.506,32.739,34.208,43.291
	c18.979,8.623,28.591,18.507,28.591,29.343c-1.204,15.229-10.28,23.206-26.999,23.806c-16.54-0.575-26.888-8.361-30.816-23.148
	h-0.294c-1.059,8.035-2.744,15.97-5.008,23.602c10.063,3.809,20.51,6.002,31.074,6.512
	C724.396,216.908,742.818,201.1,744.947,173.576z M788.877,154.439c-0.398,0.027-0.978,0.129-1.461,0.605
	c-0.42,0.42-0.665,0.991-0.665,1.578v57.805h-26.397V81.443h47.553c27.227,0,40.719,10.407,41.221,31.79
	c0.197,11.637-3.004,20.899-9.501,27.516c-8.946,9.114-24.602,13.734-46.535,13.734
	C791.743,154.483,790.398,154.463,788.877,154.439z M788.639,147.736c1.016,0.148,2.111,0.227,3.219,0.227
	c3.244,0,6.987-0.627,11.11-1.857c11.979-3.427,18.632-13.169,19.751-29.1c-1.119-17.96-8.182-27.951-21.141-29.694h-12.62
	c-1.214,0-2.207,0.992-2.207,2.204v56.054C786.751,146.658,787.553,147.588,788.639,147.736z M954.717,81.443v132.984h71.951
	c-0.342-2.416-0.527-4.643-0.527-6.496c0-2.107,0.148-4.086,0.467-5.885c-4.949,0.758-10.43,1.365-16.287,1.766
	c-6.854,0.539-15.931,0.797-27.779,0.797c-1.219,0-2.208-0.993-2.208-2.191V151.09c0-1.205,0.989-2.197,2.208-2.197h21.313
	c8.006,0.483,15.291,0.941,21.967,1.397c-0.119-0.546-0.246-1.159-0.416-1.829l-0.066-9.206c0-0.252,0.029-0.491,0.117-0.702
	c0.074-0.234,0.148-0.465,0.223-0.673c-6.66,0.788-13.99,1.197-21.824,1.197h-21.313c-1.219,0-2.208-0.989-2.208-2.193V93.46
	c0-1.212,0.989-2.197,2.208-2.197c14.206,0,29.119,0.937,44.342,2.77c-0.504-2.145-0.742-4.189-0.742-6.092
	c0-2.286,0.238-4.453,0.764-6.497H954.717z M1088.963,214.428h-43.809V81.443l56.348-0.011
	c37.992,2.587,57.477,23.048,59.543,62.432C1158.488,188.125,1134.232,211.867,1088.963,214.428z M1131.49,143.986
	c0-36.551-16.422-55.102-48.773-55.102h-9.775c-1.195,0-2.191,0.996-2.191,2.208v113.695c0,1.2,0.996,2.197,2.191,2.197h8.639
	c16.539,0,29.154-5.402,37.51-16.028C1127.305,180.467,1131.49,164.668,1131.49,143.986z M863.86,81.443v132.984h71.94
	c-0.342-2.416-0.537-4.643-0.537-6.496c0-2.107,0.158-4.086,0.469-5.885c-4.965,0.758-10.433,1.365-16.279,1.766
	c-6.85,0.539-15.945,0.797-27.795,0.797c-1.203,0-2.199-0.993-2.199-2.191V151.09c0-1.205,0.996-2.197,2.199-2.197h21.324
	c8.018,0.483,15.291,0.941,21.967,1.397c-0.115-0.546-0.254-1.159-0.412-1.829l-0.071-9.206c0-0.252,0.044-0.491,0.122-0.702
	c0.07-0.234,0.141-0.465,0.197-0.673c-6.632,0.788-13.957,1.197-21.803,1.197h-21.324c-1.203,0-2.199-0.989-2.199-2.193V93.46
	c0-1.212,0.996-2.197,2.199-2.197c14.206,0,29.123,0.937,44.346,2.77c-0.49-2.145-0.74-4.189-0.74-6.092
	c0-2.286,0.262-4.453,0.752-6.497H863.86z"/>
<g>
	<g>
		<path fill="#3E8EDE" d="M251.567,145.881l-65.573-65.562l-27.927,35.451l30.111,30.11c2.778,2.781,2.778,7.323,0,10.102
			l-8.709,8.706c0,0,5.873,8.791,6.143,9.32c1.354,2.718,1.682,9.1-2.164,12.011l-68.487,52.58
			c-0.016,17.645-0.04,53.924-0.012,53.94c0.012,0.004,136.62-136.558,136.62-136.558
			C254.345,153.2,254.345,148.662,251.567,145.881z"/>
		<path fill="#002D73" d="M99.267,154.131c-2.768-2.766-2.768-7.304,0-10.086l8.721-8.721l-5.962-8.567
			c-2.843-4.026-1.948-9.75,1.972-12.747l68.5-52.584l0.047-53.906l-0.039-0.022l-0.035-0.048L35.885,144.045
			c-2.78,2.782-2.78,7.32,0.006,10.099l65.559,65.563l27.935-35.451L99.267,154.131z"/>
	</g>
	<g>
		<g>
			<path fill="#3E8EDE" d="M207.02,39.383c1.291,0,2.547,0.787,3.125,1.956c1.042,2.149-0.462,4.065-1.29,5.12l-60.021,76.183
				c-0.609,0.768-0.66,2.422-0.1,3.216c0.324,0.47,32.404,47.008,33.507,48.589c1.577,2.271,1.428,8.119-1.715,10.501
				l-96.504,74.086c-1.355,1.039-2.36,1.604-3.766,1.617c-1.211-0.081-2.425-0.879-2.952-1.939
				c-1.057-2.147,0.527-4.187,1.287-5.165l60.005-76.15c0.615-0.824,0.676-2.395,0.122-3.234l-33.495-48.168
				c-2.428-3.453-1.674-8.351,1.681-10.917l96.522-74.096C204.877,39.846,205.919,39.383,207.02,39.383 M207.02,39.133
				c-1.158,0-2.246,0.477-3.748,1.65l-96.521,74.095c-3.467,2.652-4.242,7.692-1.733,11.26l33.494,48.167
				c0.493,0.748,0.431,2.208-0.117,2.942l-60.001,76.146c-0.792,1.02-2.438,3.148-1.314,5.43c0.565,1.139,1.86,1.991,3.159,2.078
				c1.504-0.013,2.58-0.63,3.934-1.668l96.505-74.086c3.337-2.528,3.349-8.564,1.769-10.842c-1.115-1.6-33.507-48.589-33.507-48.589
				c-0.497-0.705-0.45-2.238,0.09-2.919l60.021-76.184c0.786-1.002,2.438-3.075,1.319-5.384
				C209.75,39.978,208.413,39.133,207.02,39.133L207.02,39.133z"/>
		</g>
	</g>
	<g>
		<path fill="#FFCE00" d="M178.983,175.192c0.778,1.178,1.479,5.638-0.478,7.112L81.987,256.4c-0.813,0.622-1.333,0.923-1.565,0.904
			c-0.333,0.019-0.092-0.572,0.794-1.715l59.996-76.129c1.518-1.964,1.62-5.183,0.227-7.187l-33.491-48.198
			C107.948,124.076,178.208,174.009,178.983,175.192z"/>
	</g>
	<g>
		<path fill="#FFDE6E" d="M178.983,175.192l-32.982-47.442c-1.4-2.011-1.288-5.238,0.211-7.152l60.006-76.176
			c0.892-1.135,1.123-1.702,0.802-1.702c-0.238,0-0.767,0.278-1.565,0.912l-96.521,74.087c-1.937,1.49-2.395,4.358-0.986,6.357
			L178.983,175.192z"/>
	</g>
</g>
</svg>
